# xmcd
#
# Track frame offsets:
#	150
#	17005
#	40057
#	53407
#	64280
#	85572
#	98970
#	110592
#	128975
#	140890
#	156252
#	170730
#
# Disc length: 2473 seconds
#
# Revision: 0
# Processed by: cddbd v1.4PL0 Copyright (c) Steve Scherf et al.
# Submitted via: EasyCDDAExtractor 4.6.9.1
#
DISCID=a209a70c
DTITLE=Dale Ann Bradley - Old Southern Porches
DYEAR=1999
DGENRE=Bluegrass
TTITLE0=Reason Enough
TTITLE1=A Face On A Poster
TTITLE2=Steady As A Rock
TTITLE3=HEading Back To You
TTITLE4=What Am I Doing Loving You Again?
TTITLE5=I'll Stop Loving You With Style
TTITLE6=Rain On The Roof
TTITLE7=Meghan's Smile
TTITLE8=Letting Go Of You Is Surely Killing Me
TTITLE9=This Old Heart Of Mine
TTITLE10=Old Southern Porches
TTITLE11=Stuck In The Middle With You
EXTD=
EXTT0=
EXTT1=
EXTT2=
EXTT3=
EXTT4=
EXTT5=
EXTT6=
EXTT7=
EXTT8=
EXTT9=
EXTT10=
EXTT11=
PLAYORDER=
